<mxfile host="app.diagrams.net" modified="2023-10-04T13:12:09.442Z" agent="Mozilla/5.0 (X11; Linux x86_64; rv:109.0) Gecko/20100101 Firefox/115.0" etag="sO9o3UhHJpIxjxGIEDJ4" version="22.0.2" type="device">
  <diagram name="Page-1" id="AAw2rKPe2WApyxCpgn7q">
    <mxGraphModel dx="2284" dy="759" grid="1" gridSize="10" guides="1" tooltips="1" connect="1" arrows="1" fold="1" page="1" pageScale="1" pageWidth="850" pageHeight="1100" math="0" shadow="0">
      <root>
        <mxCell id="0" />
        <mxCell id="1" parent="0" />
        <mxCell id="dc46gyIUHuvXgEdCHgsa-1" value="&lt;h1&gt;UnifiedPush Subscription&lt;br&gt;&lt;/h1&gt;" style="text;html=1;strokeColor=none;fillColor=none;spacing=5;spacingTop=-20;whiteSpace=wrap;overflow=hidden;rounded=0;" vertex="1" parent="1">
          <mxGeometry x="-700" y="740" width="330" height="40" as="geometry" />
        </mxCell>
        <mxCell id="dc46gyIUHuvXgEdCHgsa-2" style="edgeStyle=orthogonalEdgeStyle;rounded=0;orthogonalLoop=1;jettySize=auto;html=1;exitX=1;exitY=0.25;exitDx=0;exitDy=0;entryX=0;entryY=0.25;entryDx=0;entryDy=0;" edge="1" parent="1" source="dc46gyIUHuvXgEdCHgsa-4" target="dc46gyIUHuvXgEdCHgsa-7">
          <mxGeometry relative="1" as="geometry" />
        </mxCell>
        <mxCell id="dc46gyIUHuvXgEdCHgsa-3" style="edgeStyle=orthogonalEdgeStyle;rounded=0;orthogonalLoop=1;jettySize=auto;html=1;exitX=0.75;exitY=1;exitDx=0;exitDy=0;entryX=0;entryY=0.5;entryDx=0;entryDy=0;" edge="1" parent="1" source="dc46gyIUHuvXgEdCHgsa-4" target="dc46gyIUHuvXgEdCHgsa-8">
          <mxGeometry relative="1" as="geometry">
            <Array as="points">
              <mxPoint x="-600" y="910" />
            </Array>
          </mxGeometry>
        </mxCell>
        <mxCell id="dc46gyIUHuvXgEdCHgsa-4" value="&lt;div&gt;DAVx5 /&amp;nbsp;&lt;/div&gt;&lt;div&gt;other clients&lt;/div&gt;" style="rounded=1;whiteSpace=wrap;html=1;fillColor=#ffe6cc;strokeColor=#d79b00;" vertex="1" parent="1">
          <mxGeometry x="-690" y="800" width="120" height="60" as="geometry" />
        </mxCell>
        <mxCell id="dc46gyIUHuvXgEdCHgsa-5" style="edgeStyle=orthogonalEdgeStyle;rounded=0;orthogonalLoop=1;jettySize=auto;html=1;exitX=0;exitY=0.75;exitDx=0;exitDy=0;entryX=1;entryY=0.75;entryDx=0;entryDy=0;" edge="1" parent="1" source="dc46gyIUHuvXgEdCHgsa-7" target="dc46gyIUHuvXgEdCHgsa-4">
          <mxGeometry relative="1" as="geometry" />
        </mxCell>
        <mxCell id="dc46gyIUHuvXgEdCHgsa-6" value="ENDPOINT" style="edgeLabel;html=1;align=center;verticalAlign=middle;resizable=0;points=[];" vertex="1" connectable="0" parent="dc46gyIUHuvXgEdCHgsa-5">
          <mxGeometry x="0.4077" y="-2" relative="1" as="geometry">
            <mxPoint x="21" y="-3" as="offset" />
          </mxGeometry>
        </mxCell>
        <mxCell id="dc46gyIUHuvXgEdCHgsa-7" value="UnifiedPush&lt;br&gt;Distributor App" style="rounded=1;whiteSpace=wrap;html=1;fillColor=#dae8fc;strokeColor=#6c8ebf;" vertex="1" parent="1">
          <mxGeometry x="-440" y="800" width="120" height="60" as="geometry" />
        </mxCell>
        <mxCell id="dc46gyIUHuvXgEdCHgsa-8" value="&lt;div&gt;Subscription&lt;/div&gt;&lt;div&gt;API&lt;br&gt;&lt;/div&gt;" style="rounded=1;whiteSpace=wrap;html=1;" vertex="1" parent="1">
          <mxGeometry x="-320" y="880" width="120" height="60" as="geometry" />
        </mxCell>
        <mxCell id="dc46gyIUHuvXgEdCHgsa-9" value="REGISTER" style="text;html=1;align=center;verticalAlign=middle;resizable=0;points=[];autosize=1;strokeColor=none;fillColor=none;" vertex="1" parent="1">
          <mxGeometry x="-560" y="790" width="80" height="30" as="geometry" />
        </mxCell>
        <mxCell id="dc46gyIUHuvXgEdCHgsa-10" value="&lt;p&gt;POST &amp;nbsp; /subscribe&amp;nbsp;&lt;/p&gt;&lt;p&gt;&lt;span style=&quot;white-space: pre;&quot;&gt;&#x9;&lt;/span&gt;Method: unifiedpush&lt;br&gt;&lt;/p&gt;&lt;p&gt;&lt;span style=&quot;white-space: pre;&quot;&gt;&#x9;&lt;/span&gt;Auth: ...&lt;/p&gt;&lt;p&gt;&lt;span style=&quot;white-space: pre;&quot;&gt;&#x9;Collection Token&lt;/span&gt;: XXX&lt;/p&gt;&lt;p&gt;&lt;span style=&quot;white-space: pre;&quot;&gt;&#x9;UnifiedPush&lt;/span&gt; Endpoint: XXX&lt;br&gt;&lt;/p&gt;" style="text;html=1;strokeColor=default;fillColor=default;spacing=5;spacingTop=-20;whiteSpace=wrap;overflow=hidden;rounded=0;" vertex="1" parent="1">
          <mxGeometry x="-560" y="870" width="190" height="130" as="geometry" />
        </mxCell>
        <mxCell id="dc46gyIUHuvXgEdCHgsa-11" value="&lt;font style=&quot;font-size: 24px;&quot;&gt;2&lt;/font&gt;" style="ellipse;whiteSpace=wrap;html=1;aspect=fixed;" vertex="1" parent="1">
          <mxGeometry x="-620" y="850" width="30" height="30" as="geometry" />
        </mxCell>
        <mxCell id="dc46gyIUHuvXgEdCHgsa-12" value="&lt;font style=&quot;font-size: 24px;&quot;&gt;1&lt;/font&gt;" style="ellipse;whiteSpace=wrap;html=1;aspect=fixed;" vertex="1" parent="1">
          <mxGeometry x="-580" y="805" width="30" height="30" as="geometry" />
        </mxCell>
      </root>
    </mxGraphModel>
  </diagram>
</mxfile>
